<svg xmlns="http://www.w3.org/2000/svg" viewBox="0 0 512 512">
  <rect width="512" height="512" fill="#0A0A0A"/>
  <g fill="#F5F1E8" transform="translate(-55, 0)">
    <!-- O — classical serif with stroke contrast -->
    <path d="
      M 148,256
      C 148,183 175,138 220,120
      C 230,116 241,114 253,114
      C 265,114 276,116 286,120
      C 331,138 358,183 358,256
      C 358,329 331,374 286,392
      C 276,396 265,398 253,398
      C 241,398 230,396 220,392
      C 175,374 148,329 148,256 Z
      M 190,256
      C 190,318 210,360 253,360
      C 296,360 316,318 316,256
      C 316,194 296,152 253,152
      C 210,152 190,194 190,256 Z
    " fill-rule="evenodd"/>

    <!-- C — open form, classical serif terminals -->
    <path d="
      M 480,154
      L 480,118
      C 462,114 444,114 432,114
      C 375,114 340,132 318,160
      C 300,183 290,215 290,256
      C 290,297 300,329 318,352
      C 340,380 375,398 432,398
      C 444,398 462,398 480,394
      L 480,358
      C 464,362 448,364 434,364
      C 390,364 352,330 340,290
      C 336,278 334,268 334,256
      C 334,244 336,234 340,222
      C 352,182 390,148 434,148
      C 448,148 464,150 480,154 Z
    "/>
  </g>
</svg>